<svg class="logo-bima" xmlns="http://www.w3.org/2000/svg" width="1024" height="1024" viewBox="0 0 1024 1024" version="1.1">
	<path d="M 656.500 179.602 C 635.292 184.312, 617.726 197.330, 609.499 214.436 C 606.015 221.679, 603.859 231, 605.668 231 C 606.891 231, 611.507 225.973, 616.988 218.673 C 628.113 203.854, 640.401 198.259, 647.923 204.589 C 650.473 206.734, 651 207.908, 651 211.441 C 651 216.921, 648.254 220.990, 640.500 226.995 C 632.247 233.388, 631.462 235.259, 631.679 248 C 631.866 258.893, 633.658 266.500, 636.039 266.500 C 636.822 266.500, 639.309 261.528, 642.040 254.500 C 648.911 236.823, 650.586 233.345, 656.536 224.403 C 663.863 213.392, 671.335 207.972, 681.238 206.487 C 690.768 205.058, 704.094 211.281, 716.526 222.966 C 723.024 229.073, 725.944 230.697, 727.112 228.853 C 728.345 226.907, 728.201 224.821, 726.500 220 C 724.215 213.523, 724.419 212.648, 727.805 214.399 C 731.586 216.354, 733.171 220.131, 733.753 228.568 C 734.124 233.958, 733.841 236.406, 732.562 238.879 L 730.885 242.123 726.693 239.703 C 720.740 236.268, 717.591 235.726, 713.502 237.435 C 709.705 239.021, 707.518 242.945, 708.423 246.548 C 709.783 251.968, 717.916 257.933, 724 257.972 C 733.614 258.035, 742.524 250.517, 745.939 239.461 C 748.403 231.485, 748.491 228.330, 746.468 220.460 C 741.416 200.800, 728.202 188.794, 703.500 181.421 C 695.785 179.118, 692.288 178.685, 679 178.391 C 667.581 178.138, 661.657 178.457, 656.500 179.602 M 636.096 209.507 C 621.490 214.061, 609.512 229.902, 605.425 250.071 C 603.428 259.927, 603.921 275.544, 606.558 286 C 609.202 296.483, 615.339 308.234, 621.427 314.469 C 629.584 322.824, 630.006 322.373, 626.879 308.652 C 625.653 303.272, 625.691 302.699, 627.354 301.483 C 628.967 300.304, 629.086 299.177, 628.452 291.080 C 627.944 284.582, 628.063 282, 628.871 282 C 630.647 282, 630.213 279.185, 627.341 272.078 C 622.581 260.299, 623.911 244.757, 631.177 227.250 L 634.187 220 638.938 220 C 644.555 220, 647.333 217.650, 647.333 212.899 C 647.333 207.913, 644.221 206.974, 636.096 209.507 M 334.537 257.343 C 325.778 266.634, 317.295 283.420, 314.333 297.322 C 312.322 306.762, 313.069 322.788, 315.997 333 C 319.329 344.622, 319.540 349.516, 317.055 357.536 C 314.062 367.197, 313.354 381.420, 315.390 390.965 C 317.096 398.966, 321.926 410.038, 327.071 417.744 C 328.817 420.360, 342.062 434.200, 356.503 448.500 C 380.322 472.085, 383.338 475.452, 388.977 484.750 C 392.397 490.387, 395.804 495, 396.550 495 C 398.919 495, 399.962 488.612, 398.570 482.624 C 395.710 470.322, 388.807 460.939, 363.401 434.825 C 352.281 423.396, 341.159 410.998, 338.684 407.273 C 329.465 393.395, 327.717 380.698, 333.346 368.500 C 340.602 352.776, 359.818 344.377, 373.444 350.973 C 377.560 352.965, 383.647 358.687, 382.680 359.654 C 382.458 359.875, 379.880 358.853, 376.950 357.381 C 366.885 352.326, 353.395 354.413, 345.161 362.301 C 334.738 372.285, 333.268 390.526, 341.721 404.975 C 343.177 407.464, 353.173 418.500, 363.934 429.500 C 398.212 464.538, 405 475.400, 405 495.210 C 405 498.945, 405.405 502, 405.900 502 C 407.933 502, 416.882 490.796, 418.394 486.357 C 420.587 479.920, 420.473 467.699, 418.150 460.235 C 413.696 445.924, 402.270 434.465, 370.589 412.537 C 353.146 400.465, 348.590 394.044, 348.563 381.500 C 348.544 372.555, 351.248 366.935, 356.974 364.013 C 363.651 360.607, 368.245 361.516, 374.948 367.572 C 379.505 371.689, 380.385 374.630, 376.750 373.590 C 375.512 373.236, 371.555 372.676, 367.954 372.345 C 362.015 371.800, 361.149 371.967, 358.606 374.155 C 352.849 379.108, 354.411 391.642, 361.569 397.927 C 366.026 401.840, 374.674 404.397, 380.287 403.461 C 389.754 401.882, 399.287 394.427, 402.129 386.381 C 402.903 384.189, 403.500 378.561, 403.500 373.448 C 403.500 364.933, 403.267 363.924, 399.576 356.448 C 392.899 342.925, 382.687 334.986, 367.412 331.443 C 358.337 329.339, 354.017 326.962, 349.087 321.361 C 337.073 307.713, 334.311 289.801, 340.472 265.511 C 341.862 260.030, 343 254.748, 343 253.773 C 343 250.514, 339.637 251.933, 334.537 257.343 M 742 260.002 C 722.075 264.937, 693.163 279.219, 695.487 282.979 C 695.816 283.512, 701.194 287.766, 707.437 292.432 C 718.734 300.875, 723.445 305.471, 722.451 307.079 C 720.901 309.588, 708.044 300.808, 697.934 290.337 C 693.772 286.027, 687.072 278.771, 683.045 274.213 C 679.017 269.655, 675.246 266.085, 674.665 266.278 C 672.794 266.902, 672.161 271.791, 673.043 278.815 C 674.019 286.589, 677.687 297.312, 679.076 296.453 C 679.584 296.139, 680.007 293.546, 680.015 290.691 C 680.041 281.965, 680.751 281.957, 690.362 290.577 C 695.113 294.839, 699 298.758, 699 299.288 C 699 299.824, 697.671 299.984, 696 299.650 C 694.350 299.320, 693 299.472, 693 299.988 C 693 302.697, 702.559 312.146, 711.047 317.826 C 716.246 321.306, 720.500 324.437, 720.500 324.785 C 720.500 325.133, 719.019 325.721, 717.209 326.091 C 711.655 327.227, 707 332.946, 707 338.635 C 707 342.361, 710.619 349.555, 713.722 351.996 C 717.286 354.800, 717.958 354.519, 717.306 350.500 C 716.632 346.343, 717.477 346.163, 722 349.500 C 726.273 352.653, 730.061 352.650, 736.849 349.490 C 739.791 348.121, 742.829 347, 743.599 347 C 745.888 347, 745.317 355.225, 742.604 361.362 C 741.286 364.342, 739.886 368.241, 739.494 370.026 C 738.797 373.199, 738.845 373.256, 741.641 372.558 C 749.537 370.587, 753.971 365.152, 758.005 352.500 C 759.233 348.650, 760.842 344.858, 761.582 344.072 C 763.950 341.559, 764.523 345.779, 762.737 352.586 C 758.099 370.270, 747.800 381.016, 728.250 388.571 C 719.661 391.891, 718.956 393.889, 724.439 399.373 C 727.857 402.790, 741.020 410.961, 752.500 416.791 C 755.800 418.467, 759.391 420.507, 760.479 421.323 C 762.431 422.788, 762.425 422.835, 760.015 424.787 C 757.829 426.557, 757.700 427.046, 758.788 429.434 C 760.672 433.569, 767.541 435.893, 783.919 437.936 C 790.107 438.708, 792.831 439.515, 794.197 440.981 C 796.677 443.643, 800.055 444.377, 806.673 443.694 C 812.374 443.106, 815 443.559, 815 445.129 C 815 445.633, 813.127 448.077, 810.838 450.560 C 805.877 455.942, 806.577 457.557, 813.801 457.394 C 818.983 457.277, 835.208 451.069, 838.399 447.983 C 840.019 446.416, 840.348 444.338, 840.640 433.823 C 840.828 427.045, 841.203 419.581, 841.474 417.235 C 841.760 414.756, 841.334 411.110, 840.458 408.528 C 839.049 404.378, 839.081 403.842, 840.935 400.383 C 842.027 398.346, 842.686 396.301, 842.401 395.840 C 841.547 394.458, 836.888 394.904, 830.161 397.013 C 815.074 401.742, 799 397.633, 799 389.048 C 799 385.340, 799.801 385.264, 810.370 387.967 C 823.078 391.217, 834.209 392.351, 841.292 391.118 C 848.645 389.838, 851 387.599, 851 381.889 C 851 378.304, 851.217 378, 853.777 378 C 857.452 378, 861 375.414, 861 372.737 C 861 369.290, 847.407 349.534, 843.639 347.505 L 840.380 345.750 830.641 350.875 C 822.474 355.173, 820.047 356, 815.601 356 C 808.591 356, 804 354.366, 804 351.871 C 804 348.765, 808.484 347.851, 816.712 349.280 C 820.380 349.917, 821.069 349.740, 822.047 347.913 C 822.665 346.758, 822.906 344.762, 822.584 343.477 C 821.136 337.708, 815.822 336.523, 807 340 C 801.235 342.272, 793.987 342.691, 794.024 340.750 C 794.037 340.063, 796.948 337.523, 800.494 335.107 C 806.469 331.035, 807.289 330.756, 811.720 331.286 C 814.349 331.600, 819.549 333.288, 823.276 335.035 C 833.270 339.722, 838.586 338.037, 842.357 328.986 C 851.188 307.790, 834.552 281.150, 802.739 265.544 C 792.180 260.364, 783.897 258, 776.309 258 C 771.536 258, 770.980 258.233, 770.417 260.474 C 769.452 264.320, 773.563 271.734, 778.651 275.319 C 781.244 277.147, 783 279.171, 783 280.332 C 783 281.402, 780.525 285.097, 777.500 288.543 C 774.475 291.988, 772 295.144, 772 295.556 C 772 295.967, 776.725 296.015, 782.500 295.661 C 791.355 295.120, 793 295.249, 793 296.486 C 793 300.135, 785.444 302.443, 767.500 304.275 L 755.500 305.500 755.395 310.500 C 755.245 317.684, 755.206 317.819, 752.951 319.026 C 750.493 320.342, 745.479 318.951, 741.558 315.867 L 738.991 313.848 742.553 309.500 C 744.512 307.109, 748.677 303.226, 751.808 300.870 C 754.938 298.514, 758.375 295.485, 759.444 294.139 C 760.513 292.793, 765.125 289.965, 769.694 287.854 C 774.292 285.730, 778 283.395, 778 282.623 C 778 281.857, 776.896 280.507, 775.546 279.622 C 772.488 277.618, 768.461 270.851, 766.552 264.505 C 765.753 261.851, 764.514 259.308, 763.800 258.855 C 761.573 257.442, 749.844 258.060, 742 260.002 M 649.985 270.250 C 643.606 274.585, 642.487 278.487, 642.600 296 C 642.686 309.348, 643.065 312.870, 645.323 321.372 C 651.503 344.629, 666.499 366.712, 681.524 374.681 C 688.834 378.559, 699.250 380.689, 703.250 379.125 C 704.763 378.533, 706 377.570, 706 376.983 C 706 376.396, 703.042 374.589, 699.426 372.967 C 690.613 369.012, 678.904 360.801, 676.658 356.998 C 675.033 354.247, 674.974 353.379, 676.116 348.926 C 677.241 344.533, 677.189 343.591, 675.681 341.037 C 674.739 339.443, 674.345 337.905, 674.805 337.621 C 676.612 336.504, 682.117 341.220, 684.738 346.131 C 691.185 358.211, 701.120 365.003, 713.445 365.757 C 720.496 366.188, 726 364.980, 726 363 C 726 362.422, 722.714 360.452, 718.698 358.622 C 710.435 354.856, 705.918 350.341, 700.084 340.018 C 696.721 334.067, 695.809 333.222, 688.960 329.719 C 666.489 318.226, 653.819 304.259, 653.583 290.721 C 653.505 286.256, 653.813 285.655, 658.250 281.579 C 663.557 276.706, 664.353 273.353, 661 270 C 658.368 267.368, 654.082 267.465, 649.985 270.250 M 801.180 292.216 C 801.581 294.993, 805.965 297.983, 813.282 300.471 C 822.913 303.744, 821.763 300.224, 811.040 293.605 C 804.168 289.364, 800.699 288.875, 801.180 292.216 M 770.750 309.689 C 768.320 310.324, 768.563 311.484, 771.532 313.429 C 772.924 314.341, 773.824 315.475, 773.532 315.948 C 773.239 316.422, 770.585 318.172, 767.632 319.838 C 764.680 321.505, 761.971 323.632, 761.613 324.566 C 760.572 327.278, 769.160 325.869, 773.768 322.571 C 788.824 311.796, 786.715 312.713, 795 313.348 C 799.125 313.665, 804.023 314.234, 805.884 314.614 C 811.191 315.696, 809.363 312.844, 803.434 310.794 C 799.711 309.506, 795.309 309.105, 785.500 309.160 C 778.350 309.199, 771.712 309.438, 770.750 309.689 M 567 353.949 C 544.901 357.999, 519.747 367.208, 489 382.506 C 479.925 387.021, 466.650 393.081, 459.500 395.972 C 452.350 398.863, 445.207 401.893, 443.626 402.705 C 440.948 404.079, 440.865 404.293, 442.411 405.840 C 444.526 407.956, 457.407 408.609, 467.998 407.137 C 472.121 406.564, 475.841 406.441, 476.263 406.863 C 476.686 407.286, 473.682 409.753, 469.588 412.346 C 459.806 418.543, 453.004 426.085, 449.441 434.686 C 447.082 440.380, 446.609 442.979, 446.564 450.500 C 446.515 458.661, 446.817 460.152, 449.810 466.500 C 451.626 470.350, 454.774 475.241, 456.806 477.369 C 462.550 483.383, 475.653 488.988, 477.393 486.173 C 477.674 485.719, 476.165 483.243, 474.040 480.671 C 469.307 474.943, 466.302 468.875, 465.415 463.250 C 464.488 457.376, 465.958 457.798, 471.500 465 C 479.305 475.143, 481.082 472.610, 475.836 458.818 C 473.235 451.979, 472.657 448.988, 472.586 442 C 472.494 432.956, 474.713 426, 477.689 426 C 478.913 426, 479.038 427.438, 478.458 434.843 C 477.931 441.590, 478.141 444.973, 479.346 449.120 C 482.704 460.668, 492.999 467.983, 507.039 468.796 C 516.311 469.333, 524.282 468.345, 523.742 466.726 C 523.534 466.103, 519.622 464.131, 515.048 462.345 C 502.428 457.416, 499 453.318, 499 443.155 C 499 431.164, 505.986 415.434, 515.675 405.607 C 527.342 393.776, 543.273 387.186, 565.748 384.896 C 578.807 383.565, 589.899 384.826, 608 389.699 C 625.008 394.277, 630 394.894, 630 392.417 C 630 389.938, 621.533 382.024, 614.696 378.112 C 611.563 376.320, 609 374.457, 609 373.972 C 609 371.312, 627.360 371.595, 636.500 374.397 C 639.250 375.239, 644.177 377.541, 647.449 379.512 C 655.458 384.334, 657.408 384.458, 657.819 380.170 C 658.076 377.496, 658.470 376.977, 659.819 377.539 C 666.586 380.354, 678.124 384.209, 678.540 383.793 C 679.745 382.588, 677.374 379.699, 671.645 375.392 C 659.948 366.598, 641.693 358.896, 623.199 354.952 C 608.694 351.859, 581.093 351.366, 567 353.949 M 969.622 406.803 C 969.349 407.245, 970.505 412.757, 972.190 419.053 C 974.675 428.335, 975.272 432.581, 975.346 441.500 C 975.450 454.151, 973.597 460.698, 967.335 469.799 C 962.998 476.102, 958.060 479.208, 945.522 483.517 C 930.683 488.618, 922.672 495.408, 916.636 508 C 912.696 516.218, 911.748 528.434, 914.492 535.618 C 918.216 545.370, 926.618 550.980, 937.500 550.980 C 943.946 550.980, 952.007 547.965, 955.212 544.355 C 959.523 539.499, 961.286 529.917, 958.853 524.576 C 956.719 519.893, 952.822 519.515, 938.750 522.625 C 937.233 522.961, 936 522.801, 936 522.270 C 936 520.538, 943.251 513.793, 946.632 512.380 C 951.109 510.510, 953.627 510.641, 958.500 513 C 964.317 515.816, 967 520.926, 967 529.190 C 967 541.702, 961.442 548.568, 938.343 564.593 C 909.453 584.635, 897.649 600.470, 897.765 619.031 C 897.811 626.259, 899.298 630.665, 903.998 637.497 C 905.708 639.983, 906.819 642.485, 906.465 643.056 C 905.147 645.189, 888.908 641.929, 880.899 637.923 C 872.950 633.947, 869.497 630.715, 866.368 624.321 C 864.087 619.658, 863.646 617.473, 863.704 611.117 C 863.798 600.776, 865.906 593.459, 873.928 575.642 C 882.327 556.984, 884.816 549.505, 885.929 539.579 C 888.295 518.486, 879.003 494.598, 862.366 479 C 856.718 473.704, 856.489 473.594, 856.205 476.026 C 856.043 477.415, 857.488 483.582, 859.416 489.732 C 865.285 508.450, 866.502 515.817, 866.483 532.500 C 866.468 545.952, 866.231 548.012, 864.195 552.463 C 861.394 558.584, 859.281 561, 856.728 561 C 855.159 561, 854.903 560.550, 855.448 558.750 C 855.823 557.513, 856.384 552.394, 856.695 547.375 C 857.517 534.092, 854.663 523.737, 848.628 518.104 L 846.061 515.709 845.133 518.149 C 841.220 528.443, 833.737 582.113, 833.792 599.500 C 833.849 617.662, 838.183 631.663, 846.651 641.036 C 850.673 645.487, 852.139 645.881, 854.128 643.042 C 855.449 641.155, 855.731 641.259, 861.769 645.851 C 876.112 656.758, 889.647 657.544, 908.648 648.571 L 915.795 645.196 915.648 634.800 C 915.501 624.476, 915.529 624.345, 919.694 615.952 C 924.980 605.300, 932.498 595.950, 953.127 574.375 C 962.910 564.144, 970.995 554.719, 973.213 550.960 C 981.623 536.714, 980.655 520.592, 970.838 511.362 C 965.039 505.910, 961.343 504.529, 952.500 504.514 C 945.422 504.502, 943.780 504.873, 938.250 507.735 C 934.813 509.514, 932 510.618, 932 510.188 C 932 508.845, 939.331 502.309, 943 500.380 C 948.263 497.612, 960.089 497.805, 966.076 500.755 C 972.787 504.062, 978.171 509.073, 981.532 515.141 C 984.240 520.030, 984.500 521.333, 984.496 530 C 984.492 538.334, 984.154 540.188, 981.740 545.108 C 977.649 553.448, 970.977 561.723, 954.010 579.500 C 937.112 597.204, 928.145 608.492, 923.911 617.388 C 919.613 626.420, 918.747 639, 922.424 639 C 923.186 639, 925.975 635.307, 928.621 630.794 C 935.870 618.428, 942.941 610.144, 961.730 592 C 980.543 573.833, 988.236 565.011, 993.403 555.677 C 1001.820 540.474, 1003.596 523.893, 998.504 508.052 C 995.414 498.441, 995.465 494.690, 998.896 479 C 1001.514 467.031, 1001.543 458.468, 999.001 448.410 C 995.407 434.191, 985.858 418.170, 975.892 409.640 C 971.512 405.890, 970.476 405.421, 969.622 406.803 M 720.035 412.934 C 718.468 415.863, 718.788 421.763, 720.918 429.214 C 725.963 446.856, 728.817 469.296, 726.678 474.500 C 725.889 476.419, 725.799 476.399, 724.463 474 C 723.697 472.625, 723.055 470.773, 723.035 469.884 C 723.016 468.996, 721.398 465.066, 719.440 461.152 C 715.396 453.069, 708.654 446.627, 704.810 447.173 C 701.860 447.593, 701.271 450.336, 701.118 464.356 C 700.956 479.286, 702.006 483.085, 712.715 506.322 C 716.027 513.508, 717.370 517.802, 717.720 522.322 C 718.561 533.198, 714.111 546.751, 706.088 557.750 C 700.047 566.031, 699.196 561.381, 704.436 548.722 C 708.480 538.953, 710.563 528.813, 709.590 523.628 C 709.104 521.035, 707.638 518.813, 704.698 516.213 C 702.389 514.171, 695.772 507.775, 689.994 502 C 679.886 491.897, 676.230 486.985, 667.112 471.250 C 664.643 466.989, 662.247 464, 661.300 464 C 658.422 464, 653.396 468.721, 646.166 478.214 C 632.211 496.538, 625.171 512.587, 622.868 531.329 C 621.012 546.434, 623.597 563.355, 630.244 579.603 C 633.538 587.656, 642.471 601.487, 646.001 604.001 C 652.392 608.552, 665.622 605.476, 688.500 594.121 C 718.529 579.217, 742.137 561.547, 763.829 537.739 C 773.999 526.577, 776.575 523.241, 775.700 522.366 C 775.385 522.052, 770.230 522.966, 764.244 524.397 C 758.257 525.829, 752.484 527, 751.414 527 C 747.699 527, 743.127 530.544, 736.577 538.500 C 727.320 549.743, 715.653 559.051, 713.550 556.870 C 713.354 556.667, 716.999 551.100, 721.651 544.500 C 726.303 537.900, 732.672 528.296, 735.804 523.158 L 741.500 513.816 750.500 509.548 C 755.450 507.200, 762.064 504.244, 765.198 502.978 C 772.147 500.170, 779.658 494.631, 782.761 490.026 C 786.176 484.959, 785.453 483.556, 779.241 483.198 C 776.358 483.031, 774 482.622, 774 482.288 C 774 481.954, 776.419 479.145, 779.375 476.046 C 787.698 467.320, 792.571 455.744, 790.155 450.441 C 788.113 445.958, 785.723 447.515, 775.917 459.716 C 760.399 479.023, 757.422 481.526, 755.111 477.208 C 754.584 476.223, 753.220 470.583, 752.080 464.675 C 749.608 451.867, 748.092 448.692, 740.060 439.500 C 734.151 432.739, 727 420.466, 727 417.088 C 727 414.802, 724.176 411, 722.478 411 C 721.704 411, 720.605 411.870, 720.035 412.934 M 685.140 429.078 C 664.739 431.723, 641.285 440.169, 622 451.814 C 587.396 472.710, 570.024 496.125, 567.429 525.368 C 566.193 539.299, 570.440 557.375, 579.771 577.906 C 584.233 587.725, 586.969 591.365, 588.634 589.700 C 589.531 588.802, 587.115 573.328, 583.060 554 C 581.386 546.025, 580.014 538.487, 580.009 537.250 C 579.994 533.407, 581.848 534.755, 584.904 540.810 C 588.449 547.833, 590.407 549.737, 592.390 548.091 C 593.154 547.457, 596.819 540.090, 600.533 531.719 C 615.293 498.461, 621.173 488.920, 636.947 472.640 C 649.331 459.858, 671.312 444.859, 681.154 442.474 L 683.809 441.831 684.154 456.222 C 684.498 470.508, 684.527 470.666, 688.210 478.115 C 690.251 482.242, 692.881 486.487, 694.054 487.549 L 696.188 489.480 695.344 479.990 C 693.736 461.910, 695.102 450.204, 700.114 439.112 C 703.651 431.283, 703.685 430.211, 700.435 428.975 C 697.532 427.872, 694.277 427.893, 685.140 429.078 M 549.089 467.633 C 537.532 472.907, 527.417 475.090, 510.066 476.054 C 501.028 476.556, 493.238 477.362, 492.756 477.844 C 491.587 479.013, 497.364 483.812, 502.906 486.274 C 505.330 487.351, 510.468 488.517, 514.326 488.866 C 518.409 489.235, 521.506 490.004, 521.739 490.707 C 522.828 493.999, 502.949 509.111, 490.825 514.207 C 479.325 519.041, 470.534 520.320, 453.001 519.709 C 436.448 519.132, 430.840 518.066, 410.168 511.564 C 397.835 507.685, 395 507.275, 395 509.373 C 395 511.034, 401.724 517.349, 408.313 521.876 C 439.320 543.180, 498.479 541.538, 534.298 518.378 C 549.524 508.534, 561.043 496.108, 567.369 482.704 C 575.031 466.470, 572.464 465.893, 559.814 481.004 C 544.839 498.893, 531.143 511, 525.881 511 C 525.222 511, 529.395 506.163, 535.153 500.250 C 545.368 489.761, 554.705 477.344, 557.616 470.376 C 560.134 464.350, 557.876 463.624, 549.089 467.633 M 808.633 476.750 C 808.357 477.712, 807.400 482.325, 806.505 487 C 804.469 497.637, 801.547 506.845, 797.883 514.177 C 792.702 524.541, 791.246 522.935, 793.971 509.862 C 796.138 499.466, 798.373 478.412, 797.465 476.943 C 796.239 474.959, 795.193 476.208, 793.024 482.250 C 787.802 496.793, 780.870 504.705, 767 511.954 C 762.875 514.110, 758.600 516.563, 757.500 517.405 C 755.616 518.848, 755.770 518.938, 760.171 518.968 C 762.740 518.986, 768.750 518.072, 773.525 516.938 C 778.301 515.803, 782.433 515.099, 782.706 515.373 C 783.744 516.411, 779.687 526.201, 774.959 534.069 C 760.143 558.720, 741.385 575.600, 710.422 592.144 C 705.240 594.913, 701 597.588, 701 598.089 C 701 598.590, 702.645 599, 704.655 599 C 708.275 599, 708.292 599.020, 706.457 601.048 C 704.583 603.118, 689.906 610.786, 680.250 614.740 C 673.488 617.508, 673.414 619.015, 680.100 617.800 C 700.594 614.075, 735.814 594.730, 760.462 573.661 C 765.942 568.977, 770.726 565.331, 771.094 565.558 C 771.461 565.785, 770.689 568.928, 769.377 572.541 C 766.403 580.736, 764.872 596.886, 766.062 607.504 C 767.037 616.200, 769.337 621.650, 775.066 628.846 C 778.518 633.181, 779.903 636, 778.582 636 C 778.351 636, 773.064 634.371, 766.832 632.380 C 756.883 629.202, 753.893 628.698, 742.336 628.253 C 734.479 627.950, 725.860 628.229, 720.959 628.946 C 710.630 630.456, 709.575 629.751, 712.869 623.541 C 714.152 621.123, 717.181 616.826, 719.601 613.991 C 727.703 604.498, 726.257 604.672, 703 615.980 C 678.823 627.736, 672.091 629.510, 655 628.632 C 648.125 628.279, 640.362 627.709, 637.750 627.365 C 630.733 626.442, 631.401 629.060, 639.500 634.223 C 655.501 644.424, 638.828 640.223, 614.240 627.858 C 606.397 623.914, 599.719 620.948, 599.399 621.268 C 596.456 624.211, 614.743 646.162, 627.276 654.729 C 629.874 656.506, 632 658.604, 632 659.394 C 632 660.230, 625.508 664.225, 616.438 668.969 C 587.773 683.964, 579.747 689.242, 552.690 710.890 C 527.125 731.345, 508.801 743.096, 484.808 754.422 C 448.922 771.362, 410.147 782.222, 372.144 785.977 C 358.777 787.298, 321.179 787.295, 307.856 785.972 C 264.114 781.628, 219.068 768.219, 175 746.422 C 127.632 722.994, 87.938 696.302, 46.500 660.012 C 30.859 646.315, 24.139 641, 22.461 641 C 15.652 641, 34.294 667.070, 58.766 691.771 C 84.310 717.555, 112.880 739.650, 157.250 767.935 C 179.012 781.808, 180.227 783.495, 164.446 777.924 C 152.343 773.653, 131.507 763.997, 111.453 753.366 C 93.037 743.604, 88.254 741.413, 87.344 742.323 C 86.441 743.226, 98.514 755.431, 107.500 762.700 C 132.890 783.240, 165.271 800.211, 201.332 811.879 C 245.417 826.144, 288.546 832.457, 341.500 832.395 C 360.408 832.373, 370.910 831.896, 380 830.647 C 435.427 823.032, 485.026 800.803, 542.526 757.807 C 559.255 745.297, 565.004 740.552, 583.981 723.592 C 607.872 702.239, 621.437 693.438, 636.452 689.547 C 647.055 686.799, 646.389 690.719, 634.425 701.469 C 630.425 705.063, 616.656 717.967, 603.826 730.145 C 577.554 755.082, 569.012 762.517, 550.764 776.330 C 525.011 795.823, 496.995 812.034, 452.500 833.188 C 412.488 852.211, 407.365 855, 412.432 855 C 415.714 855, 437.780 848.680, 455.568 842.646 C 498.661 828.027, 542.699 808.984, 574.849 791.066 C 579.607 788.414, 588.440 783.489, 594.477 780.122 C 600.514 776.755, 605.893 774, 606.430 774 C 608.464 774, 599.063 782.585, 588 790.830 C 574.232 801.091, 553.634 814.619, 534.500 825.966 C 519.111 835.093, 512 839.897, 512 841.170 C 512 846.620, 559.228 827.345, 595.500 807.092 C 611.642 798.079, 633.653 783.485, 645.408 774.001 C 653.215 767.702, 654.436 767.028, 655.284 768.544 C 657.630 772.735, 663.583 778.130, 668.339 780.375 C 684.738 788.115, 713.148 785.682, 727.968 775.269 C 738.338 767.983, 743.497 756.267, 741.084 745.484 C 739.429 738.088, 735.988 733.631, 729.475 730.444 C 723.607 727.573, 721.250 727.500, 703.250 729.633 C 697.260 730.342, 696.308 728.938, 700.262 725.223 C 705.239 720.548, 711.856 718.502, 722 718.501 C 730.190 718.500, 732.280 718.866, 737.155 721.151 C 747.852 726.166, 754.819 736.086, 755.757 747.634 C 756.759 759.973, 751.326 771.549, 740.402 780.353 C 727.156 791.027, 696.218 803.377, 669.949 808.476 C 662.552 809.912, 651.325 812.080, 645 813.293 C 636.762 814.874, 633.500 815.903, 633.500 816.921 C 633.500 818.667, 642.257 822.350, 663.676 829.612 C 686.807 837.454, 699.104 839.932, 718.562 840.672 C 753.395 841.998, 776.620 833.892, 795.500 813.820 C 803.895 804.896, 808.182 797.918, 812.760 785.730 C 819.548 767.658, 822.120 746.544, 820.248 724.253 C 818.573 704.302, 813.290 681.062, 811.027 683.685 C 810.640 684.133, 809.319 691.119, 808.090 699.208 C 802.597 735.385, 795.218 753.006, 778.609 769.606 C 772.732 775.482, 764.948 781, 762.540 781 C 761.036 781, 762.577 778.099, 768.351 770.058 C 775.812 759.667, 779.447 751.213, 780.878 740.920 C 782.996 725.697, 778.739 711.219, 768.358 698.332 C 765.098 694.285, 764.171 692, 765.790 692 C 766.224 692, 769.225 692.689, 772.459 693.531 C 784.940 696.782, 780.723 691.209, 759.898 676.930 C 744.980 666.701, 744.743 666.423, 749.303 664.518 C 753.099 662.932, 781.411 656.474, 799.500 653.069 C 814.092 650.322, 818 649.167, 818 647.601 C 818 646.882, 815.269 644.150, 811.932 641.527 C 804.469 635.665, 792.433 622.048, 788.780 615.337 C 782.771 604.297, 781.523 590.784, 784.970 574.079 C 787.129 563.615, 788.767 560.810, 791.086 563.602 C 792.128 564.856, 792.660 569.928, 793.110 582.902 C 793.593 596.853, 794.155 601.847, 795.823 607 C 798.812 616.233, 804.080 624.631, 810.877 631 C 820.589 640.100, 834 646.913, 834 642.747 C 834 642.058, 832.387 639.245, 830.415 636.497 C 825.731 629.968, 821.711 621.951, 819.384 614.500 C 817.863 609.629, 817.517 605.396, 817.545 592 C 817.578 575.849, 817.678 575.085, 822.270 555.916 C 827.919 532.334, 828.954 525.609, 828.980 512.339 C 829.011 496.464, 824.257 485.010, 814.571 477.622 C 810.537 474.545, 809.317 474.366, 808.633 476.750 M 547.507 537.626 C 543.589 545.884, 541.812 554.470, 541.275 567.749 C 540.319 591.385, 545.226 606.582, 560.148 626.191 C 563.366 630.421, 566 634.358, 566 634.941 C 566 636.952, 557.730 635.984, 535.654 631.391 C 517.890 627.695, 510.807 626.679, 499.910 626.268 C 477.313 625.413, 466.943 628.409, 428.023 647.030 C 415.635 652.957, 402.350 658.774, 398.500 659.957 C 384.100 664.381, 365.049 666.061, 352.533 664.011 C 345.557 662.869, 344.023 663.734, 347.400 666.906 C 353.542 672.676, 374.251 677.095, 395.454 677.159 C 416.190 677.223, 427.786 674.574, 455.536 663.436 C 464.355 659.896, 472.118 657, 472.786 657 C 475.067 657, 474.003 658.864, 469.750 662.319 C 458.298 671.622, 440.292 681.095, 425.451 685.624 C 417.263 688.123, 415.051 688.362, 399.500 688.427 C 383.906 688.492, 381.590 688.262, 371.500 685.643 C 346.753 679.219, 319.213 665.636, 284.665 642.817 C 278.156 638.518, 272.363 635, 271.790 635 C 268.402 635, 278.977 657.772, 287.968 669.838 C 300.719 686.948, 314.860 696.214, 334.681 700.449 C 337.857 701.128, 340.787 703.546, 339.722 704.611 C 336.876 707.457, 296.343 707.396, 279 704.519 C 235.864 697.365, 201.268 679.549, 160.500 643.498 C 150.008 634.219, 149.485 633.893, 149.180 636.424 C 148.655 640.777, 160.604 660.921, 173.843 678 C 182.031 688.564, 199.336 706.522, 208.102 713.553 C 228.969 730.291, 253.593 741.314, 281.890 746.585 C 287.597 747.648, 298.935 748.368, 315.512 748.719 C 392.214 750.344, 453.779 735.101, 511 700.317 C 517.325 696.472, 528.575 689.635, 536 685.125 C 568.721 665.246, 583.760 659.775, 608.500 658.749 C 612.770 658.572, 614.500 658.108, 614.500 657.140 C 614.500 656.392, 610.915 653.007, 606.534 649.618 C 593.004 639.152, 580.957 623.786, 570.377 603.500 C 561.610 586.689, 556.563 569.603, 551.989 541.250 C 551.346 537.263, 550.461 534, 550.024 534 C 549.586 534, 548.454 535.631, 547.507 537.626" stroke="none" fill="currentColor" fill-rule="evenodd"/>
</svg>